# xmcd
#
# Track frame offsets: 
#        150
#        26380
#        43647
#        60447
#        81345
#        95937
#        115795
#        135420
#        151052
#        168707
#        193805
#        209957
#        220597
#        248940
#        267500
#        291430
#        307310
#        337517
#
# Disc length: 4702 seconds
#
# Revision: 7
# Processed by: cddbd v1.5.2PL0 Copyright (c) Steve Scherf et al.
# Submitted via: ExactAudioCopy v1.1
#
DISCID=11125c12
DTITLE=Morcheeba - Parts Of The Process
DYEAR=2003
DGENRE=Trip-Hop
TTITLE0=The Sea
TTITLE1=Tape Loop
TTITLE2=Otherwise
TTITLE3=Blindfold
TTITLE4=Be Yourself
TTITLE5=Part Of The Process
TTITLE6=Let Me See
TTITLE7=Undress Me Now
TTITLE8=What's Your Name (feat. Big Daddy Kane)
TTITLE9=Trigger Hippie
TTITLE10=Rome Wasn't Built In A Day
TTITLE11=Over And Over
TTITLE12=What New York Couples Fight About (feat. Kurt Wagner)
TTITLE13=World Looking In
TTITLE14=Moog Island
TTITLE15=Way Beyond
TTITLE16=Never An Easy Way
TTITLE17=Can't Stand It
EXTD=
EXTT0=
EXTT1=
EXTT2=
EXTT3=
EXTT4=
EXTT5=
EXTT6=
EXTT7=
EXTT8=
EXTT9=
EXTT10=
EXTT11=
EXTT12=
EXTT13=
EXTT14=
EXTT15=
EXTT16=
EXTT17=
PLAYORDER=
